# xmcd
#
# Track frame offsets: 
#        150
#        4490
#        11806
#        12612
#        16910
#        18993
#        31070
#        31925
#        38488
#        42913
#        51356
#        55710
#        65873
#        67447
#        72261
#        76567
#        85038
#        85782
#        96455
#        99771
#        105867
#        108211
#        114700
#        118233
#        127337
#        130953
#        135964
#        145083
#        150740
#        152090
#        161645
#        168897
#        176511
#        181571
#        187484
#        191113
#        198968
#        205623
#        208693
#        216600
#        223529
#        228742
#        232162
#        242102
#        252615
#        254837
#        265063
#        271695
#
# Disc length: 3676 seconds
#
# Revision: 0
# Processed by: cddbd v1.4b42PL1 Copyright (c) Steve Scherf et al.
# Submitted via: ExactAudioCopy v0.90a11
#
DISCID=b60e5a30
DTITLE=Neil Rogers - The Best of Neil 1997-1998 Part 2
DYEAR=1900
DGENRE=
TTITLE0=Al Goldstein V-Mail
TTITLE1=Al's Guide To Dumping
TTITLE2=Dade County and ...
TTITLE3=I Am A Cock
TTITLE4=Say It
TTITLE5=Colonel Glenn
TTITLE6=Bring Neil Back
TTITLE7=Fly Me To The Morgue
TTITLE8=Don't Wash My Face
TTITLE9=Strange Things In My Box
TTITLE10=Jamaican Lady
TTITLE11=Good-Bye Brian Murray
TTITLE12=Mandich-The Fun Stuff
TTITLE13=Jorge (X3) Rodriguez
TTITLE14=TV Disclaimer
TTITLE15=Linda Tripp's A Fat Pig
TTITLE16=Paula Jones Is A...
TTITLE17=Little Hoer
TTITLE18=Enrique Fan
TTITLE19=Morning Wood
TTITLE20=Pizza Loft Spot
TTITLE21=Nice Kid
TTITLE22=Tommy Lasorta
TTITLE23=Paradise
TTITLE24=George Brett
TTITLE25=Sadam Hussein's A...
TTITLE26=Pissed Off and Fired Up
TTITLE27=Poop Shootin' Booty
TTITLE28=Wife Problem
TTITLE29=Stains
TTITLE30=Stern Stern Stern
TTITLE31=Wayne Blows
TTITLE32=That's The Way...
TTITLE33=Moe Howard Spelling Bee
TTITLE34=Suck A Lotta...
TTITLE35=Jerry Springer
TTITLE36=I Hate QAM
TTITLE37=Donald Duck Feels Good
TTITLE38=Tallahassee Nazi
TTITLE39=Over A Chair
TTITLE40=Crucifiction Game
TTITLE41=D-I-C-K One
TTITLE42=Piss Boner
TTITLE43=Good-Bye John Denver
TTITLE44=Take That Out Of Me Elmo
TTITLE45=My Religion
TTITLE46=Genital Warts
TTITLE47=Frugal Gourmet
EXTD=
EXTT0=
EXTT1=
EXTT2=
EXTT3=
EXTT4=
EXTT5=
EXTT6=
EXTT7=
EXTT8=
EXTT9=
EXTT10=
EXTT11=
EXTT12=
EXTT13=
EXTT14=
EXTT15=
EXTT16=
EXTT17=
EXTT18=
EXTT19=
EXTT20=
EXTT21=
EXTT22=
EXTT23=
EXTT24=
EXTT25=
EXTT26=
EXTT27=
EXTT28=
EXTT29=
EXTT30=
EXTT31=
EXTT32=
EXTT33=
EXTT34=
EXTT35=
EXTT36=
EXTT37=
EXTT38=
EXTT39=
EXTT40=
EXTT41=
EXTT42=
EXTT43=
EXTT44=
EXTT45=
EXTT46=
EXTT47=
PLAYORDER=
